# xmcd CD database file
#
# Track frame offsets:
#	150
#	26793
#	57124
#	89699
#	110771
#	134247
#	162103
#	200801
#
# Disc length: 2872 seconds
#
# Revision: 0
# Processed by: cddbd v1.5.2PL0 Copyright (c) Steve Scherf et al.
# Submitted via: CDex 1.81
#
DISCID=7a0b3608
DTITLE=Kammerflimmerei - Perhaps
DYEAR=2018
DGENRE=Jazz
TTITLE0=Perhaps
TTITLE1=Soho Jump
TTITLE2=Arabeske
TTITLE3=Dream Trance
TTITLE4=One Note
TTITLE5=Sweet Drops
TTITLE6=PPPSlow
TTITLE7=Agust
EXTD=YEAR: 2018
EXTT0=
EXTT1=
EXTT2=
EXTT3=
EXTT4=
EXTT5=
EXTT6=
EXTT7=
PLAYORDER=
